<svg width="599" height="599" viewBox="0 0 599 599" fill="none" xmlns="http://www.w3.org/2000/svg">
<circle cx="299" cy="299" r="205" stroke="#3F4A75" stroke-width="40"/>
<path d="M279.201 181.201C273.95 186.452 271 193.574 271 201C271 208.426 273.95 215.548 279.201 220.799C284.452 226.05 291.574 229 299 229C306.426 229 313.548 226.05 318.799 220.799C324.05 215.548 327 208.426 327 201C327 193.574 324.05 186.452 318.799 181.201C313.548 175.95 306.426 173 299 173C291.574 173 284.452 175.95 279.201 181.201Z" fill="#3F4A75"/>
<path d="M314.839 419.039C319.04 414.838 321.4 409.141 321.4 403.2V283.6C321.4 277.659 319.04 271.962 314.839 267.761C310.638 263.56 304.941 261.2 299 261.2C293.059 261.2 287.362 263.56 283.161 267.761C278.96 271.962 276.6 277.659 276.6 283.6V403.2C276.6 409.141 278.96 414.838 283.161 419.039C287.362 423.24 293.059 425.6 299 425.6C304.941 425.6 310.638 423.24 314.839 419.039Z" fill="#3F4A75"/>
</svg>
